<svg width="44" height="27" viewBox="0 0 44 27" fill="none" xmlns="http://www.w3.org/2000/svg">
<path d="M43.8299 13.097L31.5618 1.06978C31.3363 0.84816 30.9276 0.84816 30.702 1.06978L27.3702 4.33604C27.1428 4.5588 27.1434 4.91451 27.3714 5.13674L33.018 10.6331H0.599972C0.268802 10.6331 0 10.8897 0 11.2058V15.7876C0 16.1038 0.268802 16.3603 0.599972 16.3603H33.018L27.3714 21.8567C27.1434 22.079 27.1428 22.4346 27.3702 22.6574L30.702 25.9237C30.8148 26.0342 30.9696 26.0966 31.1316 26.0966C31.2936 26.0966 31.4485 26.0342 31.5618 25.9237L43.8299 13.8965C44.0567 13.6737 44.0567 13.3192 43.8299 13.097Z" fill="#FF8800"/>
</svg>
