<svg width="546" height="546" viewBox="0 0 546 546" fill="none" xmlns="http://www.w3.org/2000/svg">
<path fill-rule="evenodd" clip-rule="evenodd" d="M61.0495 155.362H114.714V35.7382V0H0V148.909C0 153.376 2.46167 155.362 7.38504 155.362H61.0495Z" fill="#E50328"/>
<path fill-rule="evenodd" clip-rule="evenodd" d="M118.653 39.7091H272.754V155.362H192.996C190.534 155.362 188.564 156.355 187.087 158.34C185.61 160.326 185.61 162.311 186.595 164.793L266.353 389.645C267.337 393.12 269.8 395.105 272.754 395.105V546H200.38L61.0495 155.362H114.714V35.7382C114.714 38.7163 115.699 39.7091 118.653 39.7091Z" fill="#E50328"/>
<path d="M272.754 546H345.619L484.459 155.362H538.616C543.537 155.362 546 153.376 546 148.909V0H431.286V35.7382C431.286 38.7163 429.808 39.7091 426.854 39.7091H272.754V155.362H353.005C355.466 155.362 356.944 156.355 358.42 158.34C359.898 160.326 360.389 162.311 359.405 164.793L279.647 389.645C278.663 393.12 276.2 395.105 272.754 395.105V546Z" fill="#E50328"/>
</svg>
