<svg width="704" height="704" viewBox="0 0 704 704" fill="none" xmlns="http://www.w3.org/2000/svg">
<g clip-path="url(#clip0_1_2251)">
<path d="M15.0831 703.838H253.497C366.549 703.838 458.196 612.192 458.196 499.14H219.782C106.73 499.14 15.0831 590.786 15.0831 703.838Z" fill="#F9983F"/>
<path d="M0.637451 205.337L0.637451 506.364C113.689 506.364 205.336 414.717 205.336 301.665L205.336 0.637695C92.2842 0.637695 0.637451 92.2845 0.637451 205.337Z" fill="#30B54B"/>
<path d="M689.387 0.637695L450.973 0.637695C337.921 0.637695 246.275 92.2845 246.275 205.337H484.688C597.741 205.337 689.387 113.69 689.387 0.637695Z" fill="#24D7FF"/>
<path d="M689.387 487.098V186.07C576.335 186.07 484.688 277.717 484.688 390.769V691.797C597.741 691.797 689.387 600.15 689.387 487.098Z" fill="#1966DB"/>
</g>
<defs>
<clipPath id="clip0_1_2251">
<rect width="703.2" height="703.201" fill="white" transform="translate(0.637451 0.637695)"/>
</clipPath>
</defs>
</svg>
